<?xml version="1.0" encoding="UTF-8" standalone="no"?>
<svg
   width="1500pt"
   height="1125pt"
   version="1.1"
   viewBox="0 0 1500 1125"
   id="svg10"
   sodipodi:docname="fallback.svg"
   inkscape:version="1.3.2 (091e20e, 2023-11-25, custom)"
   inkscape:export-filename="photo.png"
   inkscape:export-xdpi="96"
   inkscape:export-ydpi="96"
   xmlns:inkscape="http://www.inkscape.org/namespaces/inkscape"
   xmlns:sodipodi="http://sodipodi.sourceforge.net/DTD/sodipodi-0.dtd"
   xmlns="http://www.w3.org/2000/svg"
   xmlns:svg="http://www.w3.org/2000/svg">
  <defs
     id="defs10" />
  <sodipodi:namedview
     id="namedview10"
     pagecolor="#ffffff"
     bordercolor="#000000"
     borderopacity="0.25"
     inkscape:showpageshadow="2"
     inkscape:pageopacity="0.0"
     inkscape:pagecheckerboard="0"
     inkscape:deskcolor="#d1d1d1"
     inkscape:document-units="pt"
     inkscape:zoom="0.2590625"
     inkscape:cx="995.89867"
     inkscape:cy="855.00603"
     inkscape:window-width="1920"
     inkscape:window-height="1046"
     inkscape:window-x="-11"
     inkscape:window-y="-11"
     inkscape:window-maximized="1"
     inkscape:current-layer="svg10" />
  <path
     d="m 975.3605,82.5109 h -450.66 v 262.92 h 450.66 z m -329.81,200.9 c -38.344,0 -69.516,-31.125 -69.516,-69.422 0,-38.297 31.219,-69.422 69.516,-69.422 38.344,0 69.516,31.125 69.516,69.422 0,38.25 -31.219,69.422 -69.516,69.422 z m 208.97,0 c -38.344,0 -69.516,-31.125 -69.516,-69.422 0,-38.297 31.172,-69.422 69.516,-69.422 38.344,0 69.516,31.125 69.516,69.422 0,38.25 -31.172,69.422 -69.516,69.422 z"
     id="path1"
     style="fill:#000000;fill-opacity:0.23" />
  <path
     d="m 687.9205,370.7009 h 124.22 v 64.688 h -124.22 z"
     id="path2"
     style="fill:#000000;fill-opacity:0.23" />
  <path
     d="m 483.2205,460.7009 h 533.63 v 171.94 h -533.63 z"
     id="path3"
     style="fill:#000000;fill-opacity:0.23" />
  <path
     d="m 448.2505,975.4109 v 8.1562 c 0,32.484 26.438,58.922 58.875,58.922 h 485.76 c 32.484,0 58.922,-26.438 58.922,-58.875 v -8.1562 c 0,-32.484 -26.438,-58.875 -58.922,-58.875 l -485.76,-0.047 c -32.438,0 -58.875,26.438 -58.875,58.875 z"
     id="path4"
     style="fill:#000000;fill-opacity:0.23" />
  <path
     d="m 564.6005,836.3509 h 370.82 v 54.938 h -370.82 z"
     id="path5"
     style="fill:#000000;fill-opacity:0.23" />
  <path
     d="m 483.2205,811.0909 h 533.63 v -153.19 h -533.63 z m 445.4,-91.172 c 0,-6.9844 5.6719,-12.609 12.609,-12.609 6.9844,0 12.609,5.6719 12.609,12.609 v 37.875 c 0,6.9844 -5.6719,12.609 -12.609,12.609 -6.9844,0 -12.609,-5.6719 -12.609,-12.609 z m -95.625,0 c 0,-6.9844 5.6719,-12.609 12.609,-12.609 6.9844,0 12.609,5.6719 12.609,12.609 v 37.875 c 0,6.9844 -5.6719,12.609 -12.609,12.609 -6.9844,0 -12.609,-5.6719 -12.609,-12.609 z m -95.625,0 c 0,-6.9844 5.6719,-12.609 12.609,-12.609 6.9844,0 12.609,5.6719 12.609,12.609 v 37.875 c 0,6.9844 -5.6719,12.609 -12.609,12.609 -6.9844,0 -12.609,-5.6719 -12.609,-12.609 z m -95.578,0 c 0,-6.9844 5.6719,-12.609 12.609,-12.609 6.9844,0 12.609,5.6719 12.609,12.609 v 37.875 c 0,6.9844 -5.6719,12.609 -12.609,12.609 -6.9844,0 -12.609,-5.6719 -12.609,-12.609 z m -95.625,0 c 0,-6.9844 5.6719,-12.609 12.609,-12.609 6.9844,0 12.609,5.6719 12.609,12.609 v 37.875 c 0,6.9844 -5.6719,12.609 -12.609,12.609 -6.9844,0 -12.609,-5.6719 -12.609,-12.609 z"
     id="path6"
     style="fill:#000000;fill-opacity:0.23" />
  <path
     d="m 352.1005,550.4109 v 233.16 h 100.12 v -295.26 h -38.016 c -34.219,0 -62.109,27.844 -62.109,62.109 z"
     id="path7"
     style="fill:#000000;fill-opacity:0.23" />
  <path
     d="m 1085.8005,488.3009 h -38.016 v 295.26 h 100.12 v -233.16 c 0,-34.266 -27.844,-62.109 -62.109,-62.109 z"
     id="path8"
     style="fill:#000000;fill-opacity:0.23" />
  <path
     d="m 854.5205,169.8309 c -24.422,0 -44.25,19.828 -44.25,44.156 0,24.328 19.875,44.156 44.25,44.156 24.422,0 44.25,-19.828 44.25,-44.156 0,-24.375 -19.875,-44.156 -44.25,-44.156 z"
     id="path9"
     style="fill:#000000;fill-opacity:0.23" />
  <path
     d="m 645.5505,169.8309 c -24.422,0 -44.25,19.828 -44.25,44.156 0,24.328 19.875,44.156 44.25,44.156 24.422,0 44.25,-19.828 44.25,-44.156 0,-24.375 -19.875,-44.156 -44.25,-44.156 z"
     id="path10"
     style="fill:#000000;fill-opacity:0.23" />
</svg>
