<?xml version="1.0" encoding="UTF-8" standalone="no"?>
<svg
   width="1500pt"
   height="1125pt"
   version="1.1"
   viewBox="0 0 1500 1125"
   id="svg10"
   sodipodi:docname="fallback.svg"
   inkscape:version="1.3.2 (091e20e, 2023-11-25, custom)"
   inkscape:export-filename="photo.png"
   inkscape:export-xdpi="96"
   inkscape:export-ydpi="96"
   xmlns:inkscape="http://www.inkscape.org/namespaces/inkscape"
   xmlns:sodipodi="http://sodipodi.sourceforge.net/DTD/sodipodi-0.dtd"
   xmlns="http://www.w3.org/2000/svg"
   xmlns:svg="http://www.w3.org/2000/svg">
  <defs
     id="defs10" />
  <sodipodi:namedview
     id="namedview10"
     pagecolor="#ffffff"
     bordercolor="#000000"
     borderopacity="0.25"
     inkscape:showpageshadow="2"
     inkscape:pageopacity="0.0"
     inkscape:pagecheckerboard="0"
     inkscape:deskcolor="#d1d1d1"
     inkscape:document-units="pt"
     inkscape:zoom="0.2590625"
     inkscape:cx="993.96864"
     inkscape:cy="855.00603"
     inkscape:window-width="1920"
     inkscape:window-height="1046"
     inkscape:window-x="-11"
     inkscape:window-y="-11"
     inkscape:window-maximized="1"
     inkscape:current-layer="svg10" />
  <path
     d="M 867.14251,313.00148 H 632.88925 V 449.66739 H 867.14251 Z M 695.70713,417.42937 c -19.93123,0 -36.13445,-16.17879 -36.13445,-36.08558 0,-19.9068 16.22765,-36.08559 36.13445,-36.08559 19.93122,0 36.13444,16.17879 36.13444,36.08559 0,19.88236 -16.22765,36.08558 -36.13444,36.08558 z m 108.62268,0 c -19.9312,0 -36.1344,-16.17879 -36.1344,-36.08558 0,-19.9068 16.2032,-36.08559 36.1344,-36.08559 19.9312,0 36.1344,16.17879 36.1344,36.08559 0,19.88236 -16.2032,36.08558 -36.1344,36.08558 z"
     id="path1"
     style="fill:#000000;fill-opacity:0.23;stroke-width:0.5198" />
  <path
     d="m 717.73107,462.80276 h 64.56964 v 33.62483 h -64.56964 z"
     id="path2"
     style="fill:#000000;fill-opacity:0.23;stroke-width:0.5198" />
  <path
     d="m 611.32793,509.58478 h 277.38108 v 89.37448 H 611.32793 Z"
     id="path3"
     style="fill:#000000;fill-opacity:0.23;stroke-width:0.5198" />
  <path
     d="m 593.15051,777.13122 v 4.2396 c 0,16.8852 13.74248,30.6277 30.60325,30.6277 h 252.49825 c 16.8852,0 30.6277,-13.7425 30.6277,-30.6032 v -4.2396 c 0,-16.88524 -13.7425,-30.60329 -30.6277,-30.60329 l -252.49825,-0.0244 c -16.86129,0 -30.60325,13.74248 -30.60325,30.60319 z"
     id="path4"
     style="fill:#000000;fill-opacity:0.23;stroke-width:0.5198" />
  <path
     d="m 653.62928,704.8478 h 192.75243 v 28.5568 H 653.62928 Z"
     id="path5"
     style="fill:#000000;fill-opacity:0.23;stroke-width:0.5198" />
  <path
     d="M 611.32793,691.71764 H 888.70901 V 612.08942 H 611.32793 Z M 842.84701,644.3264 c 0,-3.63049 2.9483,-6.55416 6.5542,-6.55416 3.6305,0 6.5541,2.94825 6.5541,6.55416 v 19.68744 c 0,3.6305 -2.9482,6.55417 -6.5541,6.55417 -3.6305,0 -6.5542,-2.94826 -6.5542,-6.55417 z m -49.7059,0 c 0,-3.63049 2.9483,-6.55416 6.5542,-6.55416 3.6305,0 6.5541,2.94825 6.5541,6.55416 v 19.68744 c 0,3.6305 -2.9482,6.55417 -6.5541,6.55417 -3.6305,0 -6.5542,-2.94826 -6.5542,-6.55417 z m -49.70591,0 c 0,-3.63049 2.94825,-6.55416 6.55416,-6.55416 3.63045,0 6.55415,2.94825 6.55415,6.55416 v 19.68744 c 0,3.6305 -2.9482,6.55417 -6.55415,6.55417 -3.63049,0 -6.55416,-2.94826 -6.55416,-6.55417 z m -49.68148,0 c 0,-3.63049 2.94825,-6.55416 6.55416,-6.55416 3.63049,0 6.55416,2.94825 6.55416,6.55416 v 19.68744 c 0,3.6305 -2.94825,6.55417 -6.55416,6.55417 -3.63049,0 -6.55416,-2.94826 -6.55416,-6.55417 z m -49.70592,0 c 0,-3.63049 2.94826,-6.55416 6.55417,-6.55416 3.63049,0 6.55416,2.94825 6.55416,6.55416 v 19.68744 c 0,3.6305 -2.94826,6.55417 -6.55416,6.55417 -3.6305,0 -6.55417,-2.94826 -6.55417,-6.55417 z"
     id="path6"
     style="fill:#000000;fill-opacity:0.23;stroke-width:0.5198" />
  <path
     d="m 543.1717,556.21609 v 121.19665 h 52.04241 V 523.93647 h -19.76073 c -17.78705,0 -32.28429,14.47332 -32.28429,32.28428 z"
     id="path7"
     style="fill:#000000;fill-opacity:0.23;stroke-width:0.5198" />
  <path
     d="m 924.54921,523.93128 h -19.7607 v 153.47627 h 52.0424 V 556.21088 c 0,-17.81148 -14.4733,-32.28428 -32.2843,-32.28428 z"
     id="path8"
     style="fill:#000000;fill-opacity:0.23;stroke-width:0.5198" />
  <path
     d="m 804.32981,358.39044 c -12.6946,0 -23.0012,10.3066 -23.0012,22.95231 0,12.6457 10.3311,22.9523 23.0012,22.9523 12.6946,0 23.0012,-10.3066 23.0012,-22.9523 0,-12.67014 -10.3311,-22.95231 -23.0012,-22.95231 z"
     id="path9"
     style="fill:#000000;fill-opacity:0.23;stroke-width:0.5198" />
  <path
     d="m 695.70713,358.39044 c -12.69457,0 -23.00117,10.3066 -23.00117,22.95231 0,12.6457 10.33103,22.9523 23.00117,22.9523 12.69456,0 23.00116,-10.3066 23.00116,-22.9523 0,-12.67014 -10.33103,-22.95231 -23.00116,-22.95231 z"
     id="path10"
     style="fill:#000000;fill-opacity:0.23;stroke-width:0.5198" />
</svg>
